<?xml version="1.0" encoding="UTF-8"?>
<svg id="Layer_1" xmlns="http://www.w3.org/2000/svg" version="1.1" viewBox="0 0 48 48">
  <!-- Generator: Adobe Illustrator 30.3.0, SVG Export Plug-In . SVG Version: 2.1.3 Build 182)  -->
  <defs>
    <style>
      .st0 {
        fill: #2490cf;
      }
    </style>
  </defs>
  <path class="st0" d="M21.23,20.32h5.47c.26,0,.47-.21.47-.47v-1.99c0-.26-.21-.47-.47-.47h-5.45c-.26,0-.47.21-.47.47l-.02,1.99c0,.26.21.47.47.47h0Z"/>
  <path class="st0" d="M21.23,11.38h5.47c.26,0,.47-.21.47-.47v-1.99c0-.26-.21-.47-.47-.47h-5.45c-.26,0-.47.21-.47.47l-.02,1.99c0,.26.21.47.47.47h0Z"/>
  <path class="st0" d="M21.23,15.85h5.47c.26,0,.47-.21.47-.47v-1.99c0-.26-.21-.47-.47-.47h-5.45c-.26,0-.47.21-.47.47l-.02,1.99c0,.26.21.47.47.47h0Z"/>
  <path class="st0" d="M27.6,26.82c0,.26.21.47.47.47h1.98c.26,0,.47-.21.47-.47v-5.48c.01-.26-.2-.47-.46-.47h-1.99c-.26,0-.47.21-.47.47v5.48Z"/>
  <path class="st0" d="M36.65,26.82c0,.26.21.47.47.47h1.98c.26,0,.47-.21.47-.47v-5.48c.01-.26-.2-.47-.46-.47h-1.99c-.26,0-.47.21-.47.47,0,0,0,5.48,0,5.48Z"/>
  <path class="st0" d="M32.12,26.82c0,.26.21.47.47.47h1.98c.26,0,.47-.21.47-.47v-5.48c.01-.26-.2-.47-.46-.47h-1.99c-.26,0-.47.21-.47.47v5.48Z"/>
  <path class="st0" d="M27.14,30.26v-1.99c0-.26-.21-.47-.47-.47h-5.51c-.26,0-.47.21-.47.47l-.02,1.99c0,.26.21.48.47.48h5.53c.26,0,.47-.21.47-.47h0Z"/>
  <path class="st0" d="M27.14,39.17v-1.99c0-.26-.21-.47-.47-.47h-5.51c-.26,0-.47.21-.47.47l-.02,1.99c0,.26.21.48.47.48h5.53c.26,0,.47-.21.47-.47h0Z"/>
  <path class="st0" d="M27.14,34.72v-1.99c0-.26-.21-.47-.47-.47h-5.51c-.26,0-.47.21-.47.47l-.02,1.99c0,.26.21.48.47.48h5.53c.26,0,.47-.21.47-.47h0Z"/>
  <path class="st0" d="M17.29,21.28v5.48c-.01.26.2.47.46.47h1.99c.26,0,.47-.21.47-.47v-5.48c0-.26-.21-.47-.47-.47h-1.97c-.26,0-.47.21-.47.47h0Z"/>
  <path class="st0" d="M8.39,21.28v5.48c-.01.26.2.47.46.47h1.99c.26,0,.47-.21.47-.47v-5.48c0-.26-.21-.47-.47-.47h-1.97c-.26,0-.47.21-.47.47h0Z"/>
  <path class="st0" d="M12.84,21.28v5.48c-.01.26.2.47.46.47h1.99c.26,0,.47-.21.47-.47v-5.48c0-.26-.21-.47-.47-.47h-1.97c-.26,0-.47.21-.47.47h0Z"/>
  <path class="st0" d="M18.01,14.08l-3.89,3.87c-.19.18-.19.48,0,.67l1.41,1.41c.18.18.48.18.67,0l3.88-3.88c.18-.18.18-.48,0-.67l-1.4-1.4c-.18-.18-.48-.18-.67,0h0Z"/>
  <path class="st0" d="M12.5,8.58l-3.89,3.87c-.19.18-.19.48,0,.67l1.41,1.41c.18.18.48.18.67,0l3.88-3.88c.18-.18.18-.48,0-.67l-1.4-1.4c-.18-.18-.48-.18-.67,0h0Z"/>
  <path class="st0" d="M15.32,11.4l-3.89,3.87c-.19.18-.19.48,0,.67l1.41,1.41c.18.18.48.18.67,0l3.88-3.88c.18-.18.18-.48,0-.67l-1.4-1.4c-.18-.18-.48-.18-.67,0h0Z"/>
  <path class="st0" d="M30.05,14.08l3.89,3.87c.19.18.19.48,0,.67l-1.4,1.41c-.18.18-.48.18-.67,0l-3.88-3.88c-.18-.18-.18-.48,0-.67l1.4-1.4c.18-.18.48-.18.67,0h0Z"/>
  <path class="st0" d="M35.55,8.58l3.89,3.87c.19.18.19.48,0,.67l-1.4,1.41c-.18.18-.48.18-.67,0l-3.88-3.88c-.18-.18-.18-.48,0-.67l1.4-1.4c.18-.18.48-.18.67,0h0Z"/>
  <path class="st0" d="M32.74,11.4l3.89,3.87c.19.18.19.48,0,.67l-1.4,1.41c-.18.18-.48.18-.67,0l-3.88-3.88c-.18-.18-.18-.48,0-.67l1.4-1.4c.18-.18.48-.18.67,0h0Z"/>
  <path class="st0" d="M18.01,33.88c.19.18.48.18.67,0l1.4-1.4c.18-.18.18-.48,0-.67l-3.88-3.88c-.18-.18-.48-.18-.67,0l-1.41,1.41c-.19.18-.19.48,0,.67l3.89,3.87h0Z"/>
  <path class="st0" d="M12.5,39.38c.19.18.48.18.67,0l1.4-1.4c.18-.18.18-.48,0-.67l-3.88-3.88c-.18-.18-.48-.18-.67,0l-1.41,1.41c-.19.18-.19.48,0,.67l3.89,3.87h0Z"/>
  <path class="st0" d="M15.32,36.57c.19.18.48.18.67,0l1.4-1.4c.18-.18.18-.48,0-.67l-3.88-3.88c-.18-.18-.48-.18-.67,0l-1.41,1.41c-.19.18-.19.48,0,.67l3.89,3.87h0Z"/>
  <path class="st0" d="M30.05,33.88c-.19.18-.48.18-.67,0l-1.4-1.4c-.18-.18-.18-.48,0-.67l3.88-3.88c.18-.18.48-.18.67,0l1.4,1.41c.19.18.19.48,0,.67l-3.89,3.87h0Z"/>
  <path class="st0" d="M35.55,39.38c-.19.18-.48.18-.67,0l-1.4-1.4c-.18-.18-.18-.48,0-.67l3.88-3.88c.18-.18.48-.18.67,0l1.4,1.41c.19.18.19.48,0,.67l-3.89,3.87h0Z"/>
  <path class="st0" d="M32.74,36.57c-.19.18-.48.18-.67,0l-1.4-1.4c-.18-.18-.18-.48,0-.67l3.88-3.88c.18-.18.48-.18.67,0l1.4,1.41c.19.18.19.48,0,.67l-3.89,3.87h0Z"/>
</svg>