<?xml version="1.0" encoding="UTF-8"?>
<svg xmlns="http://www.w3.org/2000/svg" width="48" height="48" viewBox="0 0 288 288">
  <style>path { fill: #2490cf; }</style>
  <g>
    <path d="M130.85,101.02c1.56,0,2.83-1.27,2.83-2.83v-11.93c0-1.56-1.27-2.82-2.83-2.82h-14.58c1.25-.29,2.19-1.41,2.19-2.75v-9.58c0-1.56,1.27-2.83,2.83-2.83h9.56c1.56,0,2.83-1.27,2.83-2.83v-11.94c0-1.56-1.27-2.83-2.83-2.83h-11.86c-1.56,0-2.82,1.26-2.83,2.82l-.04,9.61c0,1.56-1.27,2.82-2.83,2.82h-9.52c-1.56,0-2.88,1.26-2.88,2.82v11.94c0,1.35.93,2.47,2.19,2.76h-2.19v3.6c0,1.56-1.27,2.83-2.82,2.83h-3.61v4.71h3.61c1.56,0,2.82,1.27,2.82,2.83v3.54l29.96.06Z"/>
    <path d="M97.28,83.44h3.6v-2.76h0v-27.16c0-1.56-1.27-2.83-2.82-2.83h-11.85c-1.56,0-2.82,1.26-2.83,2.82l-.06,26.26v-11.02c0-1.56-1.27-2.83-2.83-2.83h-9.58c-1.56,0-2.83-1.27-2.83-2.83v-9.56c0-1.56-1.27-2.83-2.83-2.83h-11.94c-1.56,0-2.83,1.27-2.83,2.83v11.86c0,1.56,1.26,2.82,2.82,2.83l9.61.04c1.56,0,2.82,1.27,2.82,2.83v9.52c0,1.36.97,2.55,2.25,2.82h-14.66c-1.56,0-2.83,1.27-2.83,2.82v11.85c0,1.56,1.26,2.83,2.82,2.83l14.8.03c-1.35.21-2.39,1.37-2.39,2.78v9.58c0,1.56-1.27,2.83-2.83,2.83h-9.56c-1.56,0-2.83,1.27-2.83,2.83v11.94c0,1.56,1.27,2.83,2.83,2.83h11.86c1.56,0,2.82-1.26,2.83-2.82l.04-9.61c0-1.56,1.27-2.82,2.83-2.82h9.52c1.56,0,2.88-1.26,2.88-2.82v-11.94c0-1.35-.94-2.48-2.21-2.77h2.28s.01-3.6.01-3.6c0-1.56,1.27-2.83,2.83-2.83h3.53v3.6c0,1.56-1.27,2.82-2.83,2.82h-3.6v2.76h0v27.16c0,1.56,1.27,2.83,2.82,2.83h11.85c1.56,0,2.82-1.26,2.83-2.82l.06-26.95v-2.98s-3.59,0-3.59,0c-1.57,0-2.83-1.27-2.83-2.82v-3.61h-4.71v-4.7h-3.61c-1.56,0-2.83-1.27-2.82-2.83v-3.6s-2.23,0-2.23,0c1.28-.27,2.24-1.39,2.25-2.75v2.75s3.59,0,3.59,0c1.57,0,2.83,1.27,2.83,2.82v3.61h4.71v-3.61c0-1.56,1.27-2.82,2.83-2.82Z"/>
    <path d="M193.81,190.33v3.61h4.71v-3.61c0-1.56,1.27-2.82,2.83-2.82h3.6v-2.76h0v-27.16c0-1.56-1.27-2.83-2.82-2.83h-11.85c-1.56,0-2.82,1.26-2.83,2.82l-.06,26.95v2.98s3.59,0,3.59,0c1.57,0,2.83,1.27,2.83,2.82Z"/>
    <path d="M234.95,220.29l-9.61-.04c-1.56,0-2.82-1.27-2.82-2.83v-9.52c0-1.44-1.08-2.67-2.48-2.85l14.87.03c1.56,0,2.83-1.27,2.83-2.83v-11.93c0-1.56-1.27-2.82-2.83-2.82h-14.58c1.25-.29,2.19-1.41,2.19-2.75v-9.58c0-1.56,1.27-2.83,2.83-2.83h9.56c1.56,0,2.83-1.27,2.83-2.83v-11.94c0-1.56-1.27-2.83-2.83-2.83h-11.86c-1.56,0-2.82,1.26-2.83,2.82l-.04,9.61c0,1.56-1.27,2.82-2.83,2.82h-9.52c-1.56,0-2.88,1.26-2.88,2.82v11.94c0,1.35.93,2.47,2.19,2.76h-2.19v3.6c0,1.56-1.27,2.83-2.82,2.83h-3.61v4.71h3.61c1.56,0,2.82,1.27,2.82,2.83v3.54h2.72c-1.51.05-2.73,1.28-2.74,2.81v-2.75s-3.59,0-3.59,0c-1.57,0-2.83-1.27-2.83-2.82v-3.61h-4.71v-4.7h-3.61c-1.56,0-2.83-1.27-2.82-2.83v-3.6s-29.98,0-29.98,0c-1.56,0-2.83,1.27-2.83,2.82v11.85c0,1.56,1.26,2.83,2.82,2.83l14.8.03c-1.35.21-2.39,1.37-2.39,2.78v9.58c0,1.56-1.27,2.83-2.83,2.83h-9.56c-1.56,0-2.83,1.27-2.83,2.83v11.94c0,1.56,1.27,2.83,2.83,2.83h11.86c1.56,0,2.82-1.26,2.83-2.82l.04-9.61c0-1.56,1.27-2.82,2.83-2.82h9.52c1.56,0,2.88-1.26,2.88-2.82v-11.94c0-1.35-.94-2.48-2.21-2.77h2.28s.01-3.6.01-3.6c0-1.56,1.27-2.83,2.83-2.83h3.53v3.6c0,1.56-1.27,2.82-2.83,2.82h-3.6v2.76h0v27.16c0,1.56,1.27,2.83,2.82,2.83h11.85c1.56,0,2.82-1.26,2.83-2.82l.06-26.26v11.02c0,1.56,1.27,2.83,2.83,2.83h9.58c1.56,0,2.83,1.27,2.83,2.83v9.56c0,1.56,1.27,2.83,2.83,2.83h11.94c1.56,0,2.83-1.27,2.83-2.83v-11.86c0-1.56-1.26-2.82-2.82-2.83Z"/>
    <path d="M165.28,170.59c1.56,0,2.83,1.27,2.83,2.83v9.56c0,1.56,1.27,2.83,2.83,2.83h11.94c1.56,0,2.83-1.27,2.83-2.83v-11.86c0-1.56-1.26-2.82-2.82-2.83l-9.61-.04c-1.56,0-2.82-1.27-2.82-2.83v-9.52c0-1.44-1.08-2.67-2.48-2.85l14.87.03c1.56,0,2.83-1.27,2.83-2.83v-11.93c0-1.56-1.27-2.82-2.83-2.82h-14.58c1.25-.29,2.19-1.41,2.19-2.75v-9.58c0-1.56,1.27-2.83,2.83-2.83h9.56c1.56,0,2.83-1.27,2.83-2.83v-11.94c0-1.56-1.27-2.83-2.83-2.83h-11.86c-1.56,0-2.82,1.26-2.83,2.82l-.04,9.61c0,1.56-1.27,2.82-2.83,2.82h-9.52c-1.56,0-2.88,1.26-2.88,2.82v11.94c0,1.35.93,2.47,2.19,2.76h-2.19v3.6c0,1.56-1.27,2.83-2.82,2.83h-3.61v4.71h3.61c1.56,0,2.82,1.27,2.82,2.83v3.54h2.72c-1.51.05-2.73,1.28-2.74,2.81v-2.75s-3.59,0-3.59,0c-1.57,0-2.83-1.27-2.83-2.82v-3.61h-4.71v-4.7h-3.61c-1.56,0-2.83-1.27-2.82-2.83v-3.6s-2.23,0-2.23,0c1.28-.27,2.24-1.39,2.25-2.75v2.75s3.59,0,3.59,0c1.57,0,2.83,1.27,2.83,2.82v3.61h4.71v-3.61c0-1.56,1.27-2.82,2.83-2.82h3.6v-2.76h0v-27.16c0-1.56-1.27-2.83-2.82-2.83h-11.85c-1.56,0-2.82,1.26-2.83,2.82l-.06,26.26v-11.02c0-1.56-1.27-2.83-2.83-2.83h-9.58c-1.56,0-2.83-1.27-2.83-2.83v-9.56c0-1.56-1.27-2.83-2.83-2.83h-11.94c-1.56,0-2.83,1.27-2.83,2.83v11.86c0,1.56,1.26,2.82,2.82,2.83l9.61.04c1.56,0,2.82,1.27,2.82,2.83v9.52c0,1.36.97,2.55,2.26,2.82h-14.66c-1.56,0-2.83,1.27-2.83,2.82v11.85c0,1.56,1.26,2.83,2.82,2.83l14.8.03c-1.35.21-2.39,1.37-2.39,2.78v9.58c0,1.56-1.27,2.83-2.83,2.83h-9.56c-1.56,0-2.83,1.27-2.83,2.83v11.94c0,1.56,1.27,2.83,2.83,2.83h11.86c1.56,0,2.82-1.26,2.83-2.82l.04-9.61c0-1.56,1.27-2.82,2.83-2.82h9.52c1.56,0,2.88-1.26,2.88-2.82v-11.94c0-1.35-.94-2.48-2.21-2.77h2.28s.01-3.6.01-3.6c0-1.56,1.27-2.83,2.83-2.83h3.53v3.6c0,1.56-1.27,2.82-2.83,2.82h-3.6v2.76h0v27.16c0,1.56,1.27,2.83,2.82,2.83h11.85c1.56,0,2.82-1.26,2.83-2.82l.06-26.26v11.02c0,1.56,1.27,2.83,2.83,2.83h9.58Z"/>
  </g>
</svg>